<svg version="1.1" xmlns="http://www.w3.org/2000/svg" xmlns:xlink="http://www.w3.org/1999/xlink" width="356.33755" height="172.01736" viewBox="0,0,356.33755,172.01736"><g transform="translate(-76.68515,-127.2097)"><g data-paper-data="{&quot;isPaintingLayer&quot;:true}" fill-rule="nonzero" stroke-linecap="butt" stroke-linejoin="miter" stroke-miterlimit="10" stroke-dasharray="" stroke-dashoffset="0" style="mix-blend-mode: normal"><g fill="#cccccc" stroke="#ffffff" stroke-width="20.5"><path d="M389.17159,224.67901c-1.98,2.15 -5.62,4.69 -11.78,4.69h-1.69c-1.04,0.06 -1.85,0.09 -2.53,0.09c-0.41,0 -0.84,0.03 -1.28,0.07c-0.34,0.12 -1.02,0.36 -2.23,0.83c-3.29,1.32 -5.84,1.92 -8.28,1.92c-3.42,0 -6.64,-1.22 -9.3,-3.52c-1.57,-1.35 -2.78,-2.97 -3.59,-4.76c-1.27,-0.1 -2.88,-0.25 -4.94,-0.43h-5.21c-0.24,0 -0.47,-0.01 -0.7,-0.03c-2.6,-0.16 -5.11,-0.91 -7.44,-2.23c-4.33,-2.45 -6.91,-6.67 -6.91,-11.29c0,-5.04 2.82,-9.53 7.55,-12.02c0.15,-0.09 0.31,-0.17 0.47,-0.24c0.34,-0.16 0.68,-0.3 1.02,-0.44c0.01,-0.25 0.01,-0.51 0.02,-0.77v-7.14c0,-0.3 0.01,-0.59 0.03,-0.88c-0.56,-2.35 -0.5,-4.75 0.18,-6.97c0,-0.13 0,-0.3 -0.01,-0.52c-0.02,-0.22 -0.02,-0.44 -0.02,-0.65c0,-0.76 0.05,-1.64 0.19,-2.93c0.03,-0.33 0.06,-0.59 0.07,-0.8c-0.01,-0.24 -0.07,-1.35 -0.38,-4.9c-5.87,-2.27 -8.72,-7.33 -9.36,-11.82c-0.31,-2.16 0.03,-4.38 0.99,-6.35c2.71,-5.59 8.22,-8.93 14.74,-8.93c0.4,0 0.8,0.02 1.19,0.06c0.42,0.04 1.71,0.15 3.85,0.33c1.84,0.16 2.85,0.19 3.39,0.19h0.36c0.17,-0.02 0.3,-0.03 0.47,-0.04c1.85,-0.1 3.09,-0.17 3.71,-0.21c0.04,0 0.09,-0.01 0.13,-0.01c0.21,-0.21 0.43,-0.42 0.66,-0.62c3.2,-2.81 7.2,-4.28 11.57,-4.28c1.51,0 2.65,0.02 3.5,0.06c0.68,0.03 1.23,0.08 1.74,0.15c0.12,0.01 0.25,0.03 0.38,0.06h4.06c0.19,-0.02 0.44,-0.05 0.76,-0.08c1.25,-0.13 2.24,-0.19 3.11,-0.19c6.25,0 11.28,3.07 13.55,8.25c0.87,1.89 1.32,3.85 1.32,5.83c0,4.65 -2.58,9.59 -8.19,11.94c0.18,3.65 0.27,7.22 0.27,10.7v23c0.02,0.2 0.06,0.44 0.1,0.72c0.01,0.07 0.02,0.15 0.03,0.22c0.1,0.72 0.18,1.44 0.24,2.16c4.55,1.97 7.63,6.12 8.04,11.42c0.22,2.63 -0.3,6.51 -3.85,10.36z"/><path d="M341.56199,197.32901c-0.7,7.55 -2.97,13.28 -6.92,17.45c-2.3,2.43 -5.71,4.35 -11.39,6.39c-0.11,0.04 -0.23,0.08 -0.35,0.12c-2.72,0.87 -5.69,1.32 -8.82,1.32c-4.77,0 -9.2,-0.94 -13.17,-2.79c-5.87,-2.74 -8.79,-6.57 -10.24,-9.8c-0.21,-0.35 -0.43,-0.71 -0.64,-1.1c-0.6,-1.09 -1.02,-2.27 -1.22,-3.5c-0.29,-1.72 -0.75,-4.31 -1.38,-7.75c-0.12,-0.66 -0.18,-1.32 -0.18,-1.99v-8.7c0,-1.08 0.09,-2.66 0.74,-6.94c0.63,-4.19 0.9,-5.49 1.4,-6.77c1.31,-3.49 5.23,-13.75 14.73,-15.78c3.12,-0.66 6.63,-0.75 9.95,-0.39c2.35,-3.77 6.55,-6.02 11.32,-6.02c8.28,0 12.86,5.46 13.72,10.86c0.09,0.57 0.13,1.15 0.13,1.73v13.89c0,0.01 0,0.02 0,0.02c0,0.01 0,0.01 0,0.02c0,0 0,0 0,0.01c0,0.91 -0.12,1.78 -0.32,2.63c1.93,2.19 3,4.89 3.05,7.78c0.06,2.9 -0.08,6.04 -0.41,9.31z"/><path d="M309.27153,164.95998c-0.04,0.17 -0.07,0.34 -0.12,0.51c-0.15,0.63 -0.46,2.12 -0.77,5.03c0,0.05 0,0.09 -0.01,0.12c1.71,6.88 -1.17,11.07 -3.08,12.98c-0.12,0.13 -0.25,0.25 -0.39,0.37c-1.87,1.7 -5.14,3.73 -10.02,3.73c-2.43,0 -4.7,-0.54 -6.68,-1.53c0.05,2.73 0.08,6.49 0.08,11.71c1.8,0.63 3.45,1.65 4.85,2.99c2.78,2.67 4.3,6.24 4.3,10.05c0,5.66 -3.26,10.58 -8.51,12.83c-0.13,0.06 -0.27,0.12 -0.4,0.17c-1.76,0.67 -3.74,1 -6.06,1c-0.84,0 -1.74,-0.04 -2.72,-0.13c-0.6,-0.03 -1.48,-0.02 -2.52,0.01c-1.89,0.21 -4.55,0.42 -8.11,0.62c-0.07,0 -0.14,0.01 -0.22,0.01c-0.47,0.02 -0.92,0.03 -1.36,0.03c-6.37,0 -11.02,-2.02 -13.83,-5.99c-0.06,-0.08 -0.11,-0.16 -0.16,-0.24c-2.86,-4.27 -2.94,-9.67 -0.22,-14.08c0.02,-0.05 0.05,-0.09 0.08,-0.14c1.73,-2.72 4.26,-4.66 7.54,-5.8c0.04,-1.93 0.03,-4.35 -0.03,-7.22c-1.63,0.68 -3.51,1.08 -5.62,1.08c-5.57,0 -10.17,-3.31 -11.77,-8.34c-0.33,-1.02 -0.64,-2.51 -1.36,-5.87c-0.03,-0.12 -0.05,-0.24 -0.07,-0.36l-1.48,-8.27c-0.05,-0.18 -0.12,-0.39 -0.2,-0.63c-0.77,-2.19 -1.13,-4.05 -1.13,-5.85c0,-2.23 0.65,-5.6 3.73,-8.96c1.55,-1.7 4.37,-3.9 8.91,-4.61c0.56,-0.09 1.13,-0.14 1.7,-0.14h11.06c0.25,0 0.5,0.01 0.75,0.03c4.22,0.15 8,0.14 11.24,-0.01c4.53,-0.2 9.05,-0.59 13.48,-1.16c0.5,-0.16 1.04,-0.32 1.62,-0.46c0.55,-0.14 1.11,-0.23 1.67,-0.29c4.26,-0.39 8.23,0.84 11.32,3.48c3.83,3.29 5.52,8.27 4.51,13.33z"/><path d="M267.61206,198.7497c-0.11,0.14 -0.22,0.28 -0.35,0.42c-2.16,2.47 -4.96,3.72 -6.92,4.44c-3.71,1.46 -6.89,3.23 -9.44,5.26c-0.13,0.11 -0.26,0.21 -0.4,0.31c-2.48,1.79 -5.58,2.74 -9.5,2.87c-0.13,0.01 -0.26,0.01 -0.39,0.01c-3.04,0 -5.96,-1.08 -8.44,-3.12c-1.21,-0.99 -2.21,-2.16 -2.98,-3.45c-1.61,0.62 -3.34,0.94 -5.11,0.94c-0.66,0 -1.29,-0.05 -1.91,-0.16c-0.42,-0.06 -1.3,-0.18 -2.66,-0.37c-0.28,-0.03 -1.61,-0.16 -7.52,-0.65c-0.06,0 -0.12,-0.01 -0.18,-0.02c-4.24,-0.42 -7.03,-1.21 -9.35,-2.64c-0.11,-0.06 -0.22,-0.13 -0.32,-0.21c-3.56,-2.37 -5.69,-6.32 -5.69,-10.55c0,-6.84 4.54,-12.19 11.3,-13.32c0.09,-0.01 0.17,-0.02 0.26,-0.04c0.81,-0.11 1.66,-0.16 2.53,-0.17c0.02,-0.15 0.05,-0.3 0.08,-0.46c0.04,-0.22 0.09,-0.44 0.15,-0.66c0.89,-3.54 1.81,-7.6 2.76,-12.16c-3.61,-0.58 -6.06,-2.66 -6.95,-3.42c-1.53,-1.3 -2.68,-3 -3.32,-4.9c-1.54,-4.63 -0.34,-9.67 3.14,-13.16c2.15,-2.15 4.83,-3.56 7.73,-4.07c0.63,-0.11 1.61,-0.29 2.95,-0.56l0.15,-0.03c2.97,-0.55 6.38,-0.95 10.43,-1.22c2.92,-0.2 2.92,-0.2 3.36,-0.2c0.46,0 0.92,0.03 1.38,0.09c4.28,0.54 8,2.96 10.19,6.66c1.02,1.71 1.83,3.8 2.58,6.6c0.45,1.66 0.67,2.39 0.76,2.66c0.2,0.47 0.49,1.12 0.86,1.95c0.15,0.33 0.28,0.67 0.39,1.01c0.01,0.02 0.19,0.54 0.88,2.04c0.05,0.12 0.1,0.23 0.15,0.35c1.35,3.22 3.46,8.26 6.33,15.12c0.05,0.13 0.11,0.26 0.16,0.39c0.31,0.83 0.68,1.81 1.11,2.93c3.59,-0.27 7.08,0.87 9.96,3.23c0.29,0.23 0.57,0.48 0.83,0.74c2.74,2.74 3.32,6.14 3.51,7.26c0.05,0.34 0.09,0.68 0.12,1.03c0.33,4.48 -1.24,7.49 -2.62,9.23zM220.88207,205.9697c-1.25,-0.39 -2.42,-0.99 -3.44,-1.76c1.02,0.78 2.18,1.39 3.44,1.76z"/><path d="M206.27057,218.54543c-3.449,0 -8.526,-1.088 -13.128,-6.269c-0.076,-0.086 -0.151,-0.172 -0.227,-0.259c-1.404,0.801 -2.985,1.382 -4.707,1.702c-1.729,0.322 -4.271,0.779 -7.614,1.365c-3.42,0.665 -5.96,0.975 -7.984,0.975c-6.808,0 -10.652,-2.98 -12.679,-5.48c-1.374,-1.694 -2.213,-3.76 -2.41,-5.932c-0.563,-6.204 2.626,-11.558 8.035,-14.086c-0.079,-1.149 -0.169,-2.451 -0.272,-3.923c-1.735,-1.627 -3.014,-3.71 -3.694,-6.104c-0.278,-0.978 -0.419,-1.99 -0.419,-3.007v-0.265c0,-1.246 0.211,-2.461 0.605,-3.601c0.287,-1.123 0.75,-2.197 1.376,-3.181c0.325,-0.511 0.673,-0.995 1.042,-1.453c-0.008,-0.088 -0.016,-0.177 -0.022,-0.265c-1.784,-0.669 -3.623,-1.739 -5.209,-3.452c-2.405,-2.6 -3.578,-5.997 -3.301,-9.568c0.661,-7.95 7.168,-11.688 12.729,-12.55c2.388,-0.458 6.752,-1.11 13.314,-1.989c1.029,-0.137 2.045,-0.129 3.026,0.012c0.621,0.028 1.998,0.08 4.969,0.158c0.195,0.005 0.391,0.016 0.585,0.031c7.113,0.566 12.132,1.9 15.793,4.199c0.068,0.042 0.135,0.085 0.202,0.129c4.316,2.843 7.401,6.877 8.921,11.667c0.011,0.036 0.022,0.071 0.033,0.107c0.64,2.091 0.844,4.411 0.64,7.289c-0.15,3.249 -0.861,5.917 -2.17,8.135c-0.759,1.344 -1.673,2.609 -2.747,3.801c0.916,2.609 1.583,5.57 2.017,8.929c0.41,-0.031 0.824,-0.047 1.242,-0.047c5.88,0 10.873,3.57 12.72,9.096c0.073,0.221 0.14,0.442 0.199,0.667c1.51,5.689 -1.337,10.658 -2.272,12.291c-1.895,3.312 -4.082,5.77 -6.682,7.506c-2.695,1.8 -6.08,2.878 -10.346,3.296c-0.569,0.054 -1.07,0.076 -1.565,0.076z"/><path d="M177.96216,197.32901c-0.7,7.55 -2.97,13.28 -6.92,17.45c-2.3,2.43 -5.71,4.35 -11.39,6.39c-0.11,0.04 -0.23,0.08 -0.35,0.12c-2.72,0.87 -5.69,1.32 -8.82,1.32c-4.77,0 -9.2,-0.94 -13.17,-2.79c-5.87,-2.74 -8.79,-6.57 -10.24,-9.8c-0.21,-0.35 -0.43,-0.71 -0.64,-1.1c-0.6,-1.09 -1.02,-2.27 -1.22,-3.5c-0.29,-1.72 -0.75,-4.31 -1.38,-7.75c-0.12,-0.66 -0.18,-1.32 -0.18,-1.99v-8.7c0,-1.08 0.09,-2.66 0.74,-6.94c0.63,-4.19 0.9,-5.49 1.4,-6.77c1.31,-3.49 5.23,-13.75 14.73,-15.78c3.12,-0.66 6.63,-0.75 9.95,-0.39c2.35,-3.77 6.55,-6.02 11.32,-6.02c8.28,0 12.86,5.46 13.72,10.86c0.09,0.57 0.13,1.15 0.13,1.73v13.89c0,0.01 0,0.02 0,0.02c0,0.01 0,0.01 0,0.02c0,0 0,0 0,0.01c0,0.91 -0.12,1.78 -0.32,2.63c1.93,2.19 3,4.89 3.05,7.78c0.06,2.9 -0.08,6.04 -0.41,9.31z"/><path d="M140.71515,205.511c-3.23,8.95 -12.01,14.39 -26.09,16.17c-0.64,0.08 -1.27,0.13 -1.9,0.15c-0.82,1.2 -1.89,2.24 -3.15,3.05c-3.3,2.11 -6.39,3.14 -9.44,3.14c-6.27,0 -13.02,-4.68 -13.02,-14.96c0,-0.7 0.03,-1.61 0.1,-2.87c0.03,-0.54 0.06,-0.96 0.07,-1.27c-0.17,-0.78 -0.26,-1.57 -0.26,-2.37v-4.84c0,-0.79 0.08,-1.58 0.24,-2.37c0.01,-0.67 0.04,-1.42 0.09,-2.24c-0.24,-0.88 -0.42,-1.9 -0.42,-3.04c0,-0.52 0.04,-1.04 0.11,-1.55c0.38,-2.68 1.57,-5.37 3.58,-7.52c-0.69,-1.93 -1.05,-3.97 -1.05,-6.06v-5.1c0,-2.07 0.41,-4.65 2.42,-11.07c0.84,-2.76 1.11,-3.62 1.48,-4.42c1.97,-4.42 4.94,-6.63 7.1,-7.72c3.53,-1.76 7.32,-2.66 11.26,-2.66c1.82,0 3.56,0.19 5.22,0.55c0.74,-0.5 1.53,-0.92 2.37,-1.27c1.07,-0.46 2.21,-0.78 3.47,-0.98c3.15,-0.54 6.48,0.13 9.38,1.89c3.05,1.86 6.55,5.72 6.12,13.66c-0.07,1.4 -0.19,3.27 -0.37,5.71c-0.01,0.06 -0.01,0.12 -0.02,0.18c-0.16,1.77 -0.39,4.41 -0.7,7.9c0.08,1.35 0.05,2.86 -0.07,4.64c-0.05,0.68 -0.16,1.36 -0.34,2.02c-0.04,0.15 -0.08,0.29 -0.12,0.42c1.35,1.73 2.27,3.46 2.9,4.96c0.59,1.19 1.09,2.56 1.53,4.23c0.17,0.63 0.28,1.27 0.33,1.92c0.45,5.61 0.22,8.92 -0.82,11.72z"/></g><g fill="#fadbd3" stroke="#ffffff" stroke-width="19.5"><g><path d="M394.87831,252.80875c-0.00188,0.07791 -0.00376,0.15581 -0.00565,0.23372c-0.20121,3.91904 -1.65349,7.64501 -4.31806,11.07386c-0.02801,0.041 -0.06374,0.08259 -0.09948,0.12417c-1.96271,2.42701 -4.65727,4.63722 -8.23786,6.75115c-5.5393,3.25751 -10.83068,5.16648 -15.7605,5.68719c-0.76972,0.10489 -1.99505,0.25203 -3.65996,0.44798c-2.71357,0.31417 -2.79863,0.3206 -3.02287,0.33756l-3.29395,0.2492c-0.38369,0.06791 -0.76082,0.11978 -1.1397,0.14844c-2.15731,0.16321 -4.27812,-0.3218 -6.14006,-1.39408c-2.60186,-1.49845 -4.39783,-3.95993 -5.05839,-6.93503c-0.38022,-1.73651 -0.21438,-3.55321 0.48591,-5.19261c1.28069,-3.0131 3.72548,-5.2355 6.81707,-6.30926c-0.40832,-3.03306 -1.03403,-7.70609 -1.86999,-14.02739c-0.28596,-0.07946 -0.56479,-0.16724 -0.8442,-0.26274c-4.06443,-1.40335 -6.7775,-4.78307 -7.08286,-8.81933c-0.11466,-1.51553 0.12098,-3.02645 0.70151,-4.50126c1.60334,-4.19621 5.48028,-6.9158 10.37482,-7.28609c0.66498,-0.05031 1.50416,-0.05936 2.79649,-0.04048c0.06245,0.00305 0.12489,0.00611 0.19506,0.00858c0.07018,0.00247 0.14035,0.00493 0.20279,0.00798c0.2308,-0.03302 0.46992,-0.05888 0.73282,-0.07877c0.70364,-0.05324 1.88245,-0.09576 5.76601,-0.05518c2.81124,0.05172 5.06986,0.19969 6.96201,0.43759c0.04757,0.01196 0.10227,0.01559 0.14925,0.01981c8.08392,1.1848 15.01587,5.64513 20.62412,13.26956c0.01781,0.02976 0.03561,0.05952 0.05341,0.08928c1.13038,1.57866 2.21373,3.66636 3.38944,6.5636c0.01007,0.03035 0.01956,0.05296 0.02904,0.07557c0.95269,2.41642 1.34919,5.39595 1.25377,9.37698z"/><path d="M423.2727,260.12619c-1.97397,7.10935 -8.44468,11.82932 -19.22762,14.02932c-0.49018,0.09929 -0.97439,0.17481 -1.46036,0.22713c-0.56385,0.97584 -1.33036,1.84259 -2.25725,2.54262c-2.42822,1.82455 -4.75725,2.80174 -7.11559,2.98016c-4.84814,0.36678 -10.34121,-2.85706 -10.94257,-10.80585c-0.04095,-0.54126 -0.07099,-1.24665 -0.09057,-2.22501c-0.00839,-0.4193 -0.00977,-0.74581 -0.02017,-0.98609c-0.17708,-0.59317 -0.29288,-1.19876 -0.33968,-1.81734l-0.28313,-3.74243c-0.04622,-0.61085 -0.03057,-1.22638 0.04693,-1.84659c-0.03146,-0.51865 -0.05214,-1.10033 -0.06144,-1.7373c-0.23705,-0.6664 -0.4359,-1.44456 -0.50259,-2.32604c-0.03042,-0.40208 -0.0299,-0.8065 -0.00561,-1.20494c0.13705,-2.09448 0.89983,-4.24408 2.32825,-6.0241c-0.64643,-1.45197 -1.04413,-3.00829 -1.16638,-4.62434l-0.29834,-3.94347c-0.12109,-1.60058 0.04501,-3.6195 1.22364,-8.7012c0.48805,-2.18325 0.64652,-2.86403 0.88581,-3.50425c1.2647,-3.53291 3.43191,-5.41548 5.03832,-6.38466c2.62654,-1.56738 5.50443,-2.48499 8.55095,-2.71547c1.40728,-0.10646 2.76381,-0.06134 4.06843,0.11991c0.54294,-0.4299 1.12922,-0.80087 1.75826,-1.12064c0.80045,-0.41828 1.66321,-0.73239 2.62578,-0.96075c2.40408,-0.60181 5.01812,-0.27855 7.36344,0.91269c2.46715,1.25978 5.39926,4.0397 5.53124,10.20429c0.02777,1.08661 0.04438,2.53957 0.04793,4.43678c-0.00422,0.04698 -0.00072,0.09337 -0.00493,0.14035c-0.02017,1.37797 -0.04359,3.43276 -0.07913,6.14946c0.14083,1.03918 0.20596,2.20851 0.21731,3.59187c0.00112,0.52872 -0.04416,1.06095 -0.14473,1.58181c-0.02215,0.11832 -0.04489,0.22892 -0.06822,0.33178c1.14506,1.25871 1.95763,2.54257 2.53251,3.66556c0.52582,0.88563 0.99258,1.91571 1.43049,3.18126c0.1683,0.47719 0.29079,0.96562 0.36748,1.46529c0.67613,4.31149 0.69191,6.88433 0.05155,9.11021z"/><path d="M360.04061,264.22409c0.24745,3.27076 -0.13162,6.27786 -1.12584,8.96599c-0.30284,1.03386 -0.77344,2.11151 -1.43514,3.33583c-0.30044,0.55154 -0.66567,1.06909 -1.0808,1.54376c-5.79153,6.60495 -14.09352,10.45252 -24.68161,11.42464l-0.13918,0.01053c-2.13411,0.16145 -4.36869,-0.18274 -6.64902,-1.02895c-0.13554,-0.04418 -0.26394,-0.09668 -0.39292,-0.15691c-2.01685,-0.85836 -4.14905,-2.21348 -6.52616,-4.13331c-3.13645,-2.50005 -5.01948,-4.7761 -5.97803,-7.26984c-0.11865,-0.2321 -0.27351,-0.53144 -0.46337,-0.88258c-0.37259,-0.71058 -0.6476,-1.46743 -0.80837,-2.25625c-0.16316,-0.30649 -0.30372,-0.62248 -0.42998,-0.95509c-0.39119,-1.05912 -0.63358,-2.20727 -0.72483,-3.4135c-0.24861,-3.28622 0.58717,-6.73225 2.49833,-10.25185c0.59315,-1.10249 1.23666,-2.05325 1.90617,-2.866c-0.75232,-0.48744 -1.4498,-1.07235 -2.08471,-1.75531c-0.16868,-0.17388 -0.32308,-0.36439 -0.47746,-0.5549c-1.55866,-1.9973 -2.00842,-4.2418 -2.20099,-5.75921c-0.01241,-0.06127 -0.01768,-0.13086 -0.03009,-0.19214c-0.04543,-0.29207 -0.26169,-1.40331 -1.1148,-4.97041c-0.24738,-0.49454 -0.4418,-1.00863 -0.59159,-1.54943c-0.20599,-0.76985 -0.3552,-1.30292 -0.4387,-1.58434c-0.2121,-0.64496 -0.34922,-1.32669 -0.40245,-2.03033c-0.19304,-2.55166 0.48084,-4.95115 1.94759,-6.94404c0.12631,-0.18064 0.26153,-0.3464 0.40447,-0.51275c2.17993,-2.53677 5.29406,-4.03216 9.25312,-4.43278c0.07674,-0.01358 0.14633,-0.01884 0.22366,-0.0247c0.91241,-0.06903 3.27615,-0.27896 9.34085,-0.90887l0.23197,-0.01755c0.27063,-0.02048 1.6369,-0.15494 7.93864,-1.04385c0.65854,-0.13537 1.33255,-0.2719 2.0226,-0.40187c0.75074,-0.15011 1.44314,-0.24916 2.10811,-0.29946c2.09545,-0.15853 3.92386,0.16196 5.57917,0.96991c1.98755,0.98501 3.58069,2.5131 4.63513,4.42413c1.99912,3.60483 1.76485,7.80633 -0.63332,11.26169c-0.33664,0.48428 -0.72259,0.93342 -1.15072,1.33908c-0.52213,0.91047 -1.15863,1.95402 -1.93209,3.14014c5.49629,2.54704 8.66682,6.31988 10.49303,9.79781c0.32951,0.44944 0.63102,0.93988 0.91225,1.47074c0.27116,0.50051 0.49054,1.03605 0.65637,1.58341c0.7267,2.41019 1.17516,4.74032 1.34071,6.92856zM307.82651,241.57855c-0.25875,-0.43924 -0.4806,-0.9046 -0.66553,-1.39608c0.17721,0.49207 0.39905,0.95743 0.65007,1.39725z"/></g><path d="M344.39688,249.02532l-0.67273,-8.89212l8.1189,-0.61423l0.67273,8.89213z"/></g><g fill="#ff3493" stroke="none"><g stroke-width="1"><path d="M394.75341,252.70141c-0.00188,0.07791 -0.00377,0.15581 -0.00565,0.23372c-0.20121,3.91904 -1.65349,7.64501 -4.31806,11.07386c-0.02801,0.041 -0.06374,0.08259 -0.09947,0.12417c-1.96271,2.42701 -4.65727,4.63722 -8.23786,6.75115c-5.5393,3.25751 -10.83068,5.16647 -15.7605,5.68719c-0.76972,0.10489 -1.99505,0.25203 -3.65996,0.44797c-2.71357,0.31417 -2.79863,0.3206 -3.02287,0.33757l-3.29395,0.2492c-0.38369,0.06791 -0.76082,0.11977 -1.1397,0.14844c-2.15731,0.16321 -4.27812,-0.3218 -6.14006,-1.39407c-2.60186,-1.49845 -4.39782,-3.95993 -5.05839,-6.93503c-0.38022,-1.73651 -0.21438,-3.55322 0.48591,-5.19261c1.28069,-3.0131 3.72548,-5.23551 6.81707,-6.30927c-0.40832,-3.03306 -1.03404,-7.70609 -1.87,-14.02738c-0.28596,-0.07946 -0.56478,-0.16724 -0.84419,-0.26275c-4.06443,-1.40335 -6.77751,-4.78307 -7.08287,-8.81933c-0.11466,-1.51553 0.12098,-3.02645 0.70151,-4.50126c1.60334,-4.19621 5.48028,-6.9158 10.37482,-7.28609c0.66498,-0.05031 1.50416,-0.05936 2.79649,-0.04048c0.06245,0.00305 0.12489,0.00611 0.19506,0.00857c0.07018,0.00247 0.14034,0.00494 0.20279,0.00799c0.2308,-0.03302 0.46992,-0.05888 0.73282,-0.07877c0.70364,-0.05324 1.88246,-0.09575 5.76602,-0.05517c2.81124,0.05172 5.06986,0.19968 6.962,0.43758c0.04757,0.01196 0.10227,0.0156 0.14925,0.01982c8.08392,1.1848 15.01587,5.64513 20.62412,13.26956c0.01781,0.02976 0.03561,0.05952 0.05341,0.08928c1.13038,1.57866 2.21374,3.66635 3.38944,6.5636c0.01007,0.03035 0.01956,0.05296 0.02904,0.07557c0.95269,2.41642 1.34919,5.39595 1.25377,9.37698z"/><path d="M423.1478,260.01885c-1.97397,7.10935 -8.44469,11.82932 -19.22762,14.02932c-0.49018,0.09929 -0.9744,0.17481 -1.46036,0.22713c-0.56385,0.97584 -1.33036,1.8426 -2.25725,2.54262c-2.42822,1.82455 -4.75725,2.80174 -7.11559,2.98016c-4.84814,0.36678 -10.34121,-2.85707 -10.94257,-10.80586c-0.04095,-0.54126 -0.07099,-1.24665 -0.09057,-2.22501c-0.00839,-0.4193 -0.00977,-0.74581 -0.02017,-0.9861c-0.17708,-0.59317 -0.29288,-1.19876 -0.33968,-1.81734l-0.28313,-3.74243c-0.04622,-0.61085 -0.03057,-1.22638 0.04694,-1.84659c-0.03146,-0.51865 -0.05214,-1.10032 -0.06145,-1.73729c-0.23705,-0.6664 -0.4359,-1.44456 -0.50259,-2.32604c-0.03042,-0.40208 -0.02991,-0.8065 -0.00562,-1.20494c0.13705,-2.09448 0.89983,-4.24408 2.32826,-6.0241c-0.64643,-1.45197 -1.04413,-3.0083 -1.16639,-4.62435l-0.29834,-3.94346c-0.12109,-1.60058 0.04501,-3.6195 1.22364,-8.70121c0.48805,-2.18325 0.64652,-2.86402 0.88582,-3.50424c1.2647,-3.53291 3.4319,-5.41549 5.03831,-6.38467c2.62654,-1.56738 5.50443,-2.48499 8.55095,-2.71547c1.40728,-0.10646 2.76381,-0.06134 4.06843,0.11992c0.54294,-0.4299 1.12922,-0.80087 1.75826,-1.12064c0.80045,-0.41828 1.66321,-0.7324 2.62578,-0.96076c2.40408,-0.60181 5.01812,-0.27855 7.36345,0.91269c2.46715,1.25978 5.39926,4.0397 5.53124,10.2043c0.02777,1.08661 0.04438,2.53957 0.04793,4.43678c-0.00422,0.04698 -0.00072,0.09337 -0.00493,0.14035c-0.02017,1.37797 -0.04358,3.43275 -0.07912,6.14945c0.14083,1.03918 0.20596,2.20851 0.21731,3.59188c0.00112,0.52872 -0.04416,1.06095 -0.14473,1.58181c-0.02215,0.11832 -0.04489,0.22892 -0.06822,0.33177c1.14506,1.25871 1.95763,2.54258 2.53251,3.66557c0.52582,0.88563 0.99258,1.91571 1.43049,3.18125c0.1683,0.47719 0.2908,0.96562 0.36748,1.46529c0.67613,4.31149 0.69192,6.88432 0.05156,9.1102z"/><path d="M359.9157,264.11676c0.24745,3.27076 -0.13162,6.27785 -1.12584,8.96598c-0.30284,1.03386 -0.77344,2.11152 -1.43514,3.33584c-0.30044,0.55154 -0.66566,1.06908 -1.08079,1.54375c-5.79153,6.60495 -14.09352,10.45252 -24.68162,11.42464l-0.13918,0.01053c-2.13411,0.16145 -4.36869,-0.18275 -6.64902,-1.02895c-0.13554,-0.04418 -0.26394,-0.09668 -0.39292,-0.15691c-2.01685,-0.85836 -4.14905,-2.21348 -6.52616,-4.13331c-3.13645,-2.50005 -5.01948,-4.7761 -5.97802,-7.26984c-0.11865,-0.2321 -0.27351,-0.53144 -0.46337,-0.88257c-0.37259,-0.71058 -0.6476,-1.46744 -0.80838,-2.25626c-0.16316,-0.30649 -0.30371,-0.62248 -0.42997,-0.95509c-0.39119,-1.05912 -0.63359,-2.20727 -0.72484,-3.4135c-0.24861,-3.28622 0.58717,-6.73225 2.49833,-10.25185c0.59315,-1.10249 1.23666,-2.05325 1.90617,-2.866c-0.75232,-0.48744 -1.44979,-1.07235 -2.0847,-1.75531c-0.16868,-0.17388 -0.32308,-0.36439 -0.47747,-0.5549c-1.55866,-1.9973 -2.00842,-4.2418 -2.20099,-5.75921c-0.01241,-0.06127 -0.01768,-0.13086 -0.03009,-0.19214c-0.04543,-0.29207 -0.26169,-1.4033 -1.1148,-4.97041c-0.24738,-0.49454 -0.4418,-1.00863 -0.59159,-1.54944c-0.20599,-0.76985 -0.35519,-1.30291 -0.4387,-1.58433c-0.2121,-0.64496 -0.34922,-1.3267 -0.40245,-2.03034c-0.19304,-2.55166 0.48084,-4.95115 1.94759,-6.94404c0.12631,-0.18064 0.26153,-0.3464 0.40447,-0.51274c2.17993,-2.53677 5.29405,-4.03217 9.25311,-4.43278c0.07674,-0.01358 0.14633,-0.01884 0.22365,-0.0247c0.91241,-0.06903 3.27615,-0.27896 9.34085,-0.90886l0.23197,-0.01755c0.27063,-0.02048 1.6369,-0.15495 7.93864,-1.04386c0.65854,-0.13537 1.33255,-0.2719 2.0226,-0.40187c0.75074,-0.15011 1.44314,-0.24916 2.10811,-0.29946c2.09545,-0.15853 3.92386,0.16196 5.57917,0.96991c1.98755,0.98501 3.5807,2.51311 4.63514,4.42413c1.99912,3.60483 1.76484,7.80633 -0.63333,11.26169c-0.33664,0.48428 -0.72259,0.93341 -1.15071,1.33908c-0.52213,0.91047 -1.15863,1.95403 -1.93209,3.14014c5.49629,2.54704 8.66682,6.31987 10.49303,9.7978c0.32951,0.44944 0.63102,0.93988 0.91226,1.47074c0.27116,0.50051 0.49053,1.03605 0.65637,1.58341c0.7267,2.41019 1.17517,4.74033 1.34072,6.92856zM307.7016,241.47122c-0.25875,-0.43924 -0.4806,-0.9046 -0.66553,-1.39609c0.17721,0.49207 0.39905,0.95743 0.65007,1.39726z"/></g><path d="M344.27198,248.91799l-0.67273,-8.89213l8.1189,-0.61423l0.67273,8.89213z" stroke-width="0"/></g><path d="M343.79728,232.24864v-9.78579h44.1219v9.78579z" fill="#ff3493" stroke="none" stroke-width="NaN"/><g fill="#ffffff" stroke="none" stroke-width="1"><path d="M350.40698,259.64063c0.54895,1.82873 0.88342,3.53604 1.00346,5.1227c0.16462,2.17586 -0.08048,4.06544 -0.73403,5.66475c-0.10175,0.46418 -0.37322,1.10062 -0.81291,1.90843c-4.32464,4.93244 -10.6746,7.78469 -19.05306,8.55543c-0.90777,0.06867 -1.92336,-0.10568 -3.04902,-0.5221c-1.27211,-0.54299 -2.78334,-1.52282 -4.5315,-2.94121c-1.98995,-1.58206 -3.13763,-2.88568 -3.4431,-3.91162c-0.16352,-0.35235 -0.43203,-0.8795 -0.80316,-1.58087c-0.00684,-0.09047 -0.24159,-1.07588 -0.7027,-2.95636c-0.08094,0.14299 -0.1069,0.39614 -0.07946,0.75878c-0.11523,-0.31012 -0.18757,-0.67015 -0.21839,-1.07764c-0.12349,-1.63229 0.3742,-3.48264 1.49538,-5.55127c1.11964,-2.0685 2.42913,-3.15908 3.92455,-3.27222c0.72529,-0.05487 1.44958,0.16484 2.1706,0.6601c0.19129,0.12318 0.30571,0.41236 0.34005,0.86624c0.0138,0.18248 -0.04848,0.42827 -0.18387,0.73557c-0.13771,0.30748 -0.2217,0.55413 -0.25203,0.73917c-0.59346,0.5947 -1.18775,1.18869 -1.78044,1.78333c-0.84237,0.93315 -1.28523,1.6992 -1.33094,2.29756c-0.06369,0.3711 -0.08006,0.76116 -0.04906,1.17097c0.17222,2.27639 1.36246,4.44075 3.56997,6.49317c2.20751,2.05242 4.44365,2.99296 6.71152,2.82138c0.40749,-0.03083 0.83473,-0.10904 1.28177,-0.23384c0.76662,-0.10466 1.89405,-0.28171 3.37918,-0.53094c1.73743,-0.54282 3.49922,-1.35967 5.28659,-2.45529c2.17778,-1.35224 3.48816,-2.71895 3.9303,-4.10085c0.4431,-1.37964 0.60435,-2.86627 0.48408,-4.45603c-0.11676,-1.54336 -0.49716,-2.95324 -1.14119,-4.22965c-0.16364,-0.3539 -0.40648,-0.86044 -0.73019,-1.52106c-2.02092,-2.58756 -4.16708,-4.13759 -6.43939,-4.65157c-0.55798,-0.13898 -1.70097,-0.1676 -3.42634,-0.08217c-1.72704,0.084 -2.97935,0.11108 -3.75644,0.07733c-1.50982,-0.06697 -2.74067,-0.36268 -3.69242,-0.88558c-0.2961,-0.29566 -0.4606,-0.67126 -0.495,-1.12592c-0.08248,-1.09025 0.30796,-1.94255 1.17449,-2.55635c0.69095,-0.50876 1.89117,-2.42704 3.60071,-5.75409c1.17285,-1.96132 2.86771,-4.87588 5.08459,-8.74368c-5.57729,0.42194 -11.08407,1.17995 -16.51864,2.27543c0.05148,0.68044 0.30435,1.91567 0.75932,3.70485c0.58931,2.37237 0.92396,3.78415 1.00386,4.23381c0.08597,0.54019 -0.09775,1.11322 -0.55366,1.71696c-0.45657,0.60534 -1.06483,1.00441 -1.82473,1.19799c-0.71571,0.19179 -1.37118,-0.03313 -1.96618,-0.67167c-0.20236,-0.25921 -0.35792,-0.79413 -0.46371,-1.60655c-0.05148,-0.68044 -0.60695,-3.19145 -1.66426,-7.53554c-0.05246,-0.08702 -0.15153,-0.19384 -0.29791,-0.31963c-0.37918,-1.38353 -0.56597,-2.05374 -0.56264,-2.00966c-0.03773,-0.49873 0.06752,-0.91652 0.31566,-1.25491c0.71187,-0.8284 1.92743,-1.33096 3.64828,-1.50704c1.40418,-0.10623 4.59633,-0.41616 9.57407,-0.9304c0.95184,-0.07201 3.86504,-0.45105 8.73785,-1.13932c0.71844,-0.14534 1.45936,-0.2916 2.22331,-0.44194c1.12248,-0.22179 1.88602,-0.23367 2.289,-0.0363c0.4015,0.19825 0.70919,0.49303 0.92179,0.88755c0.42102,0.74425 0.36393,1.50056 -0.16969,2.26959c-0.30405,0.20575 -0.66415,0.57516 -1.07881,1.10735c-0.51796,0.99648 -1.31891,2.32309 -2.40139,3.97818c-1.08326,1.65515 -1.86269,2.95758 -2.33771,3.90493c-0.62995,1.32534 -1.59628,3.31303 -2.90114,5.96557c8.20841,0.61003 13.51596,3.56095 15.92332,8.85117c0.1948,0.16956 0.39957,0.45037 0.61139,0.84494z"/><path d="M386.22738,252.49802c-0.1109,2.15238 -0.95652,4.24526 -2.53519,6.28005c-1.29253,1.60255 -3.27066,3.18853 -5.93282,4.75783c-4.54172,2.66956 -8.6896,4.19262 -12.44535,4.56697c-0.72178,0.10127 -1.93077,0.24872 -3.62595,0.4454c-1.69518,0.19668 -2.588,0.29845 -2.67924,0.30535l-3.87619,0.29325c-0.67008,0.18834 -1.26779,0.1309 -1.79154,-0.17242c-0.52441,-0.30172 -0.8551,-0.76662 -0.9952,-1.39525c0.54293,-1.27288 1.74918,-1.88828 3.62254,-1.84726c2.92174,0.05269 4.58309,-0.00534 4.98035,-0.17148c-0.0754,-0.99669 -0.22228,-2.3317 -0.43964,-4.00199c-0.35591,-2.29904 -0.57664,-3.69533 -0.6585,-4.19151c-0.51549,-3.79172 -1.41674,-10.58556 -2.70477,-20.38454c-0.09787,-0.67693 -0.24844,-1.16635 -0.45347,-1.47123c-0.23762,-0.11889 -0.53223,-0.09661 -0.88458,0.06692c-0.44281,0.17037 -0.98202,0.2796 -1.61606,0.32757c-0.99824,0.07552 -1.93047,-0.03515 -2.79537,-0.33521c-0.86639,-0.29917 -1.32315,-0.76543 -1.37129,-1.40179c-0.01714,-0.22655 0.03207,-0.48068 0.14751,-0.76393c0.4172,-1.12572 1.44003,-1.74979 3.07309,-1.87334c0.36264,-0.02743 1.02334,-0.03155 1.9828,-0.01315c0.77781,0.03292 1.34546,0.01175 1.70548,-0.06059c0.35925,-0.07228 2.11374,-0.09149 5.26198,-0.0567c2.42039,0.04551 4.41349,0.16846 5.97929,0.36884c5.7631,0.84168 10.75437,4.1346 14.97544,9.88018c0.71302,0.99589 1.51782,2.59841 2.41617,4.81053c0.50622,1.28449 0.72683,3.29592 0.66051,6.0375zM381.41053,255.73509c0.79303,-1.56475 1.1242,-3.23144 0.99041,-4.99981c-0.32238,-4.26126 -2.97911,-8.32493 -7.96763,-12.18807c-0.63115,-0.49972 -1.98577,-1.21844 -4.06223,-2.15551c-2.78238,-1.20172 -5.9012,-1.74187 -9.357,-1.61729c1.24214,10.39503 2.25671,18.06993 3.04151,23.02642c0.30442,1.6186 0.76017,4.0244 1.36712,7.21585c2.36787,-0.04228 5.0037,-0.77749 7.90519,-2.20547c2.90154,-1.42721 5.31914,-3.21752 7.2551,-5.37111c0.03991,-0.04813 0.3173,-0.61658 0.82753,-1.70501z"/><path d="M414.67028,252.23356c0.43932,2.79509 0.53004,4.61105 0.27557,5.4515c-1.03472,3.81802 -5.27943,6.48689 -12.73242,8.00881c-2.51601,0.50997 -5.14543,-0.49959 -7.89134,-3.02841c0.03089,0.40826 0.21396,1.62544 0.55087,3.65296c0.24928,1.4859 0.31869,2.71168 0.20976,3.67721c-1.07945,0.8111 -1.95819,1.24308 -2.63862,1.29456c-1.04386,0.07898 -1.6414,-0.90154 -1.79584,-2.94287c-0.02744,-0.36264 -0.04871,-0.94194 -0.06311,-1.73873c-0.01511,-0.79595 -0.03397,-1.35366 -0.05802,-1.67145c-0.05833,-0.77091 -0.16749,-1.30934 -0.32762,-1.61684l-0.28301,-3.74088c-0.00684,-0.09047 0.00786,-0.19423 0.04488,-0.31135c0.03631,-0.11629 0.07421,-0.2218 0.11293,-0.31649c-0.09359,-0.6306 -0.14494,-1.60734 -0.1532,-2.9295c0.0287,-0.82337 -0.01067,-1.34375 -0.11834,-1.56424c-0.26155,-0.43514 -0.39426,-0.69884 -0.40116,-0.79008c0.08411,-1.28327 0.96705,-1.98853 2.64418,-2.11541c1.08794,-0.0823 1.77436,0.25382 2.05996,1.00675c0.05487,0.72529 0.226,1.78473 0.514,3.17594c0.39644,1.61163 1.3806,3.17958 2.95538,4.70129c1.72735,1.73958 3.31114,2.48606 4.75297,2.24012c1.61865,-0.30365 3.22176,-0.81298 4.80941,-1.52644c2.20533,-0.98804 3.49343,-2.04279 3.865,-3.16506c0.25448,-0.84046 0.34865,-1.7131 0.27998,-2.62087c-0.20919,-2.76506 -1.38521,-4.75165 -3.52866,-5.95738c-0.95234,-0.52052 -2.66551,-0.86995 -5.14182,-1.0481c-1.41936,-0.07381 -2.28847,-0.1006 -2.60472,-0.07668c-2.17318,0.2103 -4.25609,-0.33901 -6.24715,-1.64804c-1.99178,-1.30819 -3.05903,-2.91574 -3.20311,-4.8202l-0.29839,-3.94424c-0.06511,-0.8606 0.28094,-2.91646 1.03904,-6.16609c0.33909,-1.53119 0.52888,-2.34264 0.56837,-2.43739c0.33548,-0.98268 0.80861,-1.65692 1.41939,-2.02275c1.48278,-0.88672 3.08588,-1.39605 4.8094,-1.52644c3.35504,-0.25383 5.92917,0.91932 7.72241,3.51944c0.14639,0.1258 0.38838,0.31279 0.72677,0.56092c-0.00312,-0.63744 0.01435,-1.61938 0.05094,-2.94494c-0.09019,-0.58575 -0.1787,-1.14907 -0.26472,-1.69003c-0.04797,-0.63404 0.2357,-1.08866 0.85409,-1.36408c0.17409,-0.10415 0.4187,-0.19109 0.73304,-0.26076c0.44627,-0.12475 0.94277,-0.048 1.48863,0.22877c0.54442,0.27843 0.83223,1.21472 0.86174,2.80746c0.02984,1.00091 0.04572,2.41349 0.04681,4.23701c-0.02283,1.50726 -0.05298,3.81218 -0.09264,6.91646c0.14534,0.71845 0.22086,1.71668 0.22639,2.99239c-0.16216,0.87858 -0.81002,1.36074 -1.9428,1.44644c-0.58997,0.04463 -1.16797,-0.07106 -1.73631,-0.3469c-0.33729,-0.84001 -0.50015,-1.19397 -0.48986,-1.05788c-0.00291,-1.23081 -0.37538,-2.84426 -1.11896,-4.84023c-0.57836,-1.00452 -1.38117,-2.43688 -2.41158,-4.29761c-1.03035,-1.85996 -2.27602,-2.8039 -3.73689,-2.83024c-1.82429,0.00115 -2.95636,0.7027 -3.39782,2.10399c-0.1363,0.60366 -0.3216,1.48477 -0.55215,2.64147c-0.41741,1.71909 -0.63584,3.35469 -0.65534,4.90603c-0.00783,0.50295 -0.038,0.71054 -0.08975,0.62269c0.20477,0.89748 0.43184,1.79171 0.68216,2.68496c0.31232,1.11641 0.93349,1.9365 1.86181,2.45807c0.92921,0.52305 2.64454,0.75722 5.14927,0.70459c6.14843,-0.09888 10.09537,1.74573 11.84168,5.53455c0.25327,0.34634 0.5261,0.94082 0.81854,1.78422z"/></g><g fill="#ffc500" stroke="none" stroke-width="1"><path d="M389.17159,224.679c-1.98,2.15 -5.62,4.69 -11.78,4.69h-1.69c-1.04,0.06 -1.85,0.09 -2.53,0.09c-0.41,0 -0.84,0.03 -1.28,0.07c-0.34,0.12 -1.02,0.36 -2.23,0.83c-3.29,1.32 -5.84,1.92 -8.28,1.92c-3.42,0 -6.64,-1.22 -9.3,-3.52c-1.57,-1.35 -2.78,-2.97 -3.59,-4.76c-1.27,-0.1 -2.88,-0.25 -4.94,-0.43h-5.21c-0.24,0 -0.47,-0.01 -0.7,-0.03c-2.6,-0.16 -5.11,-0.91 -7.44,-2.23c-4.33,-2.45 -6.91,-6.67 -6.91,-11.29c0,-5.04 2.82,-9.53 7.55,-12.02c0.15,-0.09 0.31,-0.17 0.47,-0.24c0.34,-0.16 0.68,-0.3 1.02,-0.44c0.01,-0.25 0.01,-0.51 0.02,-0.77v-7.14c0,-0.3 0.01,-0.59 0.03,-0.88c-0.56,-2.35 -0.5,-4.75 0.18,-6.97c0,-0.13 0,-0.3 -0.01,-0.52c-0.02,-0.22 -0.02,-0.44 -0.02,-0.65c0,-0.76 0.05,-1.64 0.19,-2.93c0.03,-0.33 0.06,-0.59 0.07,-0.8c-0.01,-0.24 -0.07,-1.35 -0.38,-4.9c-5.87,-2.27 -8.72,-7.33 -9.36,-11.82c-0.31,-2.16 0.03,-4.38 0.99,-6.35c2.71,-5.59 8.22,-8.93 14.74,-8.93c0.4,0 0.8,0.02 1.19,0.06c0.42,0.04 1.71,0.15 3.85,0.33c1.84,0.16 2.85,0.19 3.39,0.19h0.36c0.17,-0.02 0.3,-0.03 0.47,-0.04c1.85,-0.1 3.09,-0.17 3.71,-0.21c0.04,0 0.09,-0.01 0.13,-0.01c0.21,-0.21 0.43,-0.42 0.66,-0.62c3.2,-2.81 7.2,-4.28 11.57,-4.28c1.51,0 2.65,0.02 3.5,0.06c0.68,0.03 1.23,0.08 1.74,0.15c0.12,0.01 0.25,0.03 0.38,0.06h4.06c0.19,-0.02 0.44,-0.05 0.76,-0.08c1.25,-0.13 2.24,-0.19 3.11,-0.19c6.25,0 11.28,3.07 13.55,8.25c0.87,1.89 1.32,3.85 1.32,5.83c0,4.65 -2.58,9.59 -8.19,11.94c0.18,3.65 0.27,7.22 0.27,10.7v23c0.02,0.2 0.06,0.44 0.1,0.72c0.01,0.07 0.02,0.15 0.03,0.22c0.1,0.72 0.18,1.44 0.24,2.16c4.55,1.97 7.63,6.12 8.04,11.42c0.22,2.63 -0.3,6.51 -3.85,10.36z"/><path d="M341.56199,197.32901c-0.7,7.55 -2.97,13.28 -6.92,17.45c-2.3,2.43 -5.71,4.35 -11.39,6.39c-0.11,0.04 -0.23,0.08 -0.35,0.12c-2.72,0.87 -5.69,1.32 -8.82,1.32c-4.77,0 -9.2,-0.94 -13.17,-2.79c-5.87,-2.74 -8.79,-6.57 -10.24,-9.8c-0.21,-0.35 -0.43,-0.71 -0.64,-1.1c-0.6,-1.09 -1.02,-2.27 -1.22,-3.5c-0.29,-1.72 -0.75,-4.31 -1.38,-7.75c-0.12,-0.66 -0.18,-1.32 -0.18,-1.99v-8.7c0,-1.08 0.09,-2.66 0.74,-6.94c0.63,-4.19 0.9,-5.49 1.4,-6.77c1.31,-3.49 5.23,-13.75 14.73,-15.78c3.12,-0.66 6.63,-0.75 9.95,-0.39c2.35,-3.77 6.55,-6.02 11.32,-6.02c8.28,0 12.86,5.46 13.72,10.86c0.09,0.57 0.13,1.15 0.13,1.73v13.89c0,0.01 0,0.02 0,0.02c0,0.01 0,0.01 0,0.02c0,0 0,0 0,0.01c0,0.91 -0.12,1.78 -0.32,2.63c1.93,2.19 3,4.89 3.05,7.78c0.06,2.9 -0.08,6.04 -0.41,9.31z"/><path d="M309.27155,164.95998c-0.04,0.17 -0.07,0.34 -0.12,0.51c-0.15,0.63 -0.46,2.12 -0.77,5.03c0,0.05 0,0.09 -0.01,0.12c1.71,6.88 -1.17,11.07 -3.08,12.98c-0.12,0.13 -0.25,0.25 -0.39,0.37c-1.87,1.7 -5.14,3.73 -10.02,3.73c-2.43,0 -4.7,-0.54 -6.68,-1.53c0.05,2.73 0.08,6.49 0.08,11.71c1.8,0.63 3.45,1.65 4.85,2.99c2.78,2.67 4.3,6.24 4.3,10.05c0,5.66 -3.26,10.58 -8.51,12.83c-0.13,0.06 -0.27,0.12 -0.4,0.17c-1.76,0.67 -3.74,1 -6.06,1c-0.84,0 -1.74,-0.04 -2.72,-0.13c-0.6,-0.03 -1.48,-0.02 -2.52,0.01c-1.89,0.21 -4.55,0.42 -8.11,0.62c-0.07,0 -0.14,0.01 -0.22,0.01c-0.47,0.02 -0.92,0.03 -1.36,0.03c-6.37,0 -11.02,-2.02 -13.83,-5.99c-0.06,-0.08 -0.11,-0.16 -0.16,-0.24c-2.86,-4.27 -2.94,-9.67 -0.22,-14.08c0.02,-0.05 0.05,-0.09 0.08,-0.14c1.73,-2.72 4.26,-4.66 7.54,-5.8c0.04,-1.93 0.03,-4.35 -0.03,-7.22c-1.63,0.68 -3.51,1.08 -5.62,1.08c-5.57,0 -10.17,-3.31 -11.77,-8.34c-0.33,-1.02 -0.64,-2.51 -1.36,-5.87c-0.03,-0.12 -0.05,-0.24 -0.07,-0.36l-1.48,-8.27c-0.05,-0.18 -0.12,-0.39 -0.2,-0.63c-0.77,-2.19 -1.13,-4.05 -1.13,-5.85c0,-2.23 0.65,-5.6 3.73,-8.96c1.55,-1.7 4.37,-3.9 8.91,-4.61c0.56,-0.09 1.13,-0.14 1.7,-0.14h11.06c0.25,0 0.5,0.01 0.75,0.03c4.22,0.15 8,0.14 11.24,-0.01c4.53,-0.2 9.05,-0.59 13.48,-1.16c0.5,-0.16 1.04,-0.32 1.62,-0.46c0.55,-0.14 1.11,-0.23 1.67,-0.29c4.26,-0.39 8.23,0.84 11.32,3.48c3.83,3.29 5.52,8.27 4.51,13.33z"/><path d="M267.61206,198.7497c-0.11,0.14 -0.22,0.28 -0.35,0.42c-2.16,2.47 -4.96,3.72 -6.92,4.44c-3.71,1.46 -6.89,3.23 -9.44,5.26c-0.13,0.11 -0.26,0.21 -0.4,0.31c-2.48,1.79 -5.58,2.74 -9.5,2.87c-0.13,0.01 -0.26,0.01 -0.39,0.01c-3.04,0 -5.96,-1.08 -8.44,-3.12c-1.21,-0.99 -2.21,-2.16 -2.98,-3.45c-1.61,0.62 -3.34,0.94 -5.11,0.94c-0.66,0 -1.29,-0.05 -1.91,-0.16c-0.42,-0.06 -1.3,-0.18 -2.66,-0.37c-0.28,-0.03 -1.61,-0.16 -7.52,-0.65c-0.06,0 -0.12,-0.01 -0.18,-0.02c-4.24,-0.42 -7.03,-1.21 -9.35,-2.64c-0.11,-0.06 -0.22,-0.13 -0.32,-0.21c-3.56,-2.37 -5.69,-6.32 -5.69,-10.55c0,-6.84 4.54,-12.19 11.3,-13.32c0.09,-0.01 0.17,-0.02 0.26,-0.04c0.81,-0.11 1.66,-0.16 2.53,-0.17c0.02,-0.15 0.05,-0.3 0.08,-0.46c0.04,-0.22 0.09,-0.44 0.15,-0.66c0.89,-3.54 1.81,-7.6 2.76,-12.16c-3.61,-0.58 -6.06,-2.66 -6.95,-3.42c-1.53,-1.3 -2.68,-3 -3.32,-4.9c-1.54,-4.63 -0.34,-9.67 3.14,-13.16c2.15,-2.15 4.83,-3.56 7.73,-4.07c0.63,-0.11 1.61,-0.29 2.95,-0.56l0.15,-0.03c2.97,-0.55 6.38,-0.95 10.43,-1.22c2.92,-0.2 2.92,-0.2 3.36,-0.2c0.46,0 0.92,0.03 1.38,0.09c4.28,0.54 8,2.96 10.19,6.66c1.02,1.71 1.83,3.8 2.58,6.6c0.45,1.66 0.67,2.39 0.76,2.66c0.2,0.47 0.49,1.12 0.86,1.95c0.15,0.33 0.28,0.67 0.39,1.01c0.01,0.02 0.19,0.54 0.88,2.04c0.05,0.12 0.1,0.23 0.15,0.35c1.35,3.22 3.46,8.26 6.33,15.12c0.05,0.13 0.11,0.26 0.16,0.39c0.31,0.83 0.68,1.81 1.11,2.93c3.59,-0.27 7.08,0.87 9.96,3.23c0.29,0.23 0.57,0.48 0.83,0.74c2.74,2.74 3.32,6.14 3.51,7.26c0.05,0.34 0.09,0.68 0.12,1.03c0.33,4.48 -1.24,7.49 -2.62,9.23zM220.88207,205.9697c-1.25,-0.39 -2.42,-0.99 -3.44,-1.76c1.02,0.78 2.18,1.39 3.44,1.76z"/><path d="M206.27058,218.54543c-3.449,0 -8.526,-1.088 -13.128,-6.269c-0.076,-0.086 -0.151,-0.172 -0.227,-0.259c-1.404,0.801 -2.985,1.382 -4.707,1.702c-1.729,0.322 -4.271,0.779 -7.614,1.365c-3.42,0.665 -5.96,0.975 -7.984,0.975c-6.808,0 -10.652,-2.98 -12.679,-5.48c-1.374,-1.694 -2.213,-3.76 -2.41,-5.932c-0.563,-6.204 2.626,-11.558 8.035,-14.086c-0.079,-1.149 -0.169,-2.451 -0.272,-3.923c-1.735,-1.627 -3.014,-3.71 -3.694,-6.104c-0.278,-0.978 -0.419,-1.99 -0.419,-3.007v-0.265c0,-1.246 0.211,-2.461 0.605,-3.601c0.287,-1.123 0.75,-2.197 1.376,-3.181c0.325,-0.511 0.673,-0.995 1.042,-1.453c-0.008,-0.088 -0.016,-0.177 -0.022,-0.265c-1.784,-0.669 -3.623,-1.739 -5.209,-3.452c-2.405,-2.6 -3.578,-5.997 -3.301,-9.568c0.661,-7.95 7.168,-11.688 12.729,-12.55c2.388,-0.458 6.752,-1.11 13.314,-1.989c1.029,-0.137 2.045,-0.129 3.026,0.012c0.621,0.028 1.998,0.08 4.969,0.158c0.195,0.005 0.391,0.016 0.585,0.031c7.113,0.566 12.132,1.9 15.793,4.199c0.068,0.042 0.135,0.085 0.202,0.129c4.316,2.843 7.401,6.877 8.921,11.667c0.011,0.036 0.022,0.071 0.033,0.107c0.64,2.091 0.844,4.411 0.64,7.289c-0.15,3.249 -0.861,5.917 -2.17,8.135c-0.759,1.344 -1.673,2.609 -2.747,3.801c0.916,2.609 1.583,5.57 2.017,8.929c0.41,-0.031 0.824,-0.047 1.242,-0.047c5.88,0 10.873,3.57 12.72,9.096c0.073,0.221 0.14,0.442 0.199,0.667c1.51,5.689 -1.337,10.658 -2.272,12.291c-1.895,3.312 -4.082,5.77 -6.682,7.506c-2.695,1.8 -6.08,2.878 -10.346,3.296c-0.569,0.054 -1.07,0.076 -1.565,0.076z"/><path d="M177.96218,197.32901c-0.7,7.55 -2.97,13.28 -6.92,17.45c-2.3,2.43 -5.71,4.35 -11.39,6.39c-0.11,0.04 -0.23,0.08 -0.35,0.12c-2.72,0.87 -5.69,1.32 -8.82,1.32c-4.77,0 -9.2,-0.94 -13.17,-2.79c-5.87,-2.74 -8.79,-6.57 -10.24,-9.8c-0.21,-0.35 -0.43,-0.71 -0.64,-1.1c-0.6,-1.09 -1.02,-2.27 -1.22,-3.5c-0.29,-1.72 -0.75,-4.31 -1.38,-7.75c-0.12,-0.66 -0.18,-1.32 -0.18,-1.99v-8.7c0,-1.08 0.09,-2.66 0.74,-6.94c0.63,-4.19 0.9,-5.49 1.4,-6.77c1.31,-3.49 5.23,-13.75 14.73,-15.78c3.12,-0.66 6.63,-0.75 9.95,-0.39c2.35,-3.77 6.55,-6.02 11.32,-6.02c8.28,0 12.86,5.46 13.72,10.86c0.09,0.57 0.13,1.15 0.13,1.73v13.89c0,0.01 0,0.02 0,0.02c0,0.01 0,0.01 0,0.02c0,0 0,0 0,0.01c0,0.91 -0.12,1.78 -0.32,2.63c1.93,2.19 3,4.89 3.05,7.78c0.06,2.9 -0.08,6.04 -0.41,9.31z"/><path d="M140.71515,205.511c-3.23,8.95 -12.01,14.39 -26.09,16.17c-0.64,0.08 -1.27,0.13 -1.9,0.15c-0.82,1.2 -1.89,2.24 -3.15,3.05c-3.3,2.11 -6.39,3.14 -9.44,3.14c-6.27,0 -13.02,-4.68 -13.02,-14.96c0,-0.7 0.03,-1.61 0.1,-2.87c0.03,-0.54 0.06,-0.96 0.07,-1.27c-0.17,-0.78 -0.26,-1.57 -0.26,-2.37v-4.84c0,-0.79 0.08,-1.58 0.24,-2.37c0.01,-0.67 0.04,-1.42 0.09,-2.24c-0.24,-0.88 -0.42,-1.9 -0.42,-3.04c0,-0.52 0.04,-1.04 0.11,-1.55c0.38,-2.68 1.57,-5.37 3.58,-7.52c-0.69,-1.93 -1.05,-3.97 -1.05,-6.06v-5.1c0,-2.07 0.41,-4.65 2.42,-11.07c0.84,-2.76 1.11,-3.62 1.48,-4.42c1.97,-4.42 4.94,-6.63 7.1,-7.72c3.53,-1.76 7.32,-2.66 11.26,-2.66c1.82,0 3.56,0.19 5.22,0.55c0.74,-0.5 1.53,-0.92 2.37,-1.27c1.07,-0.46 2.21,-0.78 3.47,-0.98c3.15,-0.54 6.48,0.13 9.38,1.89c3.05,1.86 6.55,5.72 6.12,13.66c-0.07,1.4 -0.19,3.27 -0.37,5.71c-0.01,0.06 -0.01,0.12 -0.02,0.18c-0.16,1.77 -0.39,4.41 -0.7,7.9c0.08,1.35 0.05,2.86 -0.07,4.64c-0.05,0.68 -0.16,1.36 -0.34,2.02c-0.04,0.15 -0.08,0.29 -0.12,0.42c1.35,1.73 2.27,3.46 2.9,4.96c0.59,1.19 1.09,2.56 1.53,4.23c0.17,0.63 0.28,1.27 0.33,1.92c0.45,5.61 0.22,8.92 -0.82,11.72z"/></g><path d="M216.50358,198.19843c0.233,0.88 -0.161,2.215 -1.186,4.003c-1.023,1.789 -2.105,3.064 -3.246,3.826c-1.141,0.762 -2.911,1.261 -5.308,1.495c-1.931,0.176 -3.73,-0.675 -5.396,-2.551c-1.668,-1.876 -2.617,-3.958 -2.851,-6.245c-0.645,-6.45 -1.464,-11.083 -2.458,-13.898c-0.118,-0.703 -0.439,-1.743 -0.966,-3.122c-0.526,-1.377 -1.725,-2.507 -3.597,-3.387c-1.405,-0.527 -2.837,-1.084 -4.299,-1.671c-0.234,-0.058 -0.526,-0.058 -0.877,0c-0.819,0.234 -2.517,0.703 -5.09,1.407v1.671v6.861c0,0.118 0.044,0.675 0.132,1.671c0.088,0.998 0.132,1.702 0.132,2.111c0.117,0.998 0.265,3.637 0.44,7.916c0.409,0.177 0.849,0.177 1.319,0c1.583,-0.645 2.99,-0.791 4.222,-0.439c0.88,0.294 1.319,0.998 1.319,2.111c0,1.643 -0.865,2.625 -2.595,2.946c-1.73,0.323 -4.266,0.778 -7.608,1.364c-2.698,0.527 -4.692,0.791 -5.981,0.791c-1.994,0 -3.373,-0.469 -4.134,-1.407c-0.176,-1.936 0.82,-3.107 2.99,-3.519c1.76,-0.176 3.519,-0.381 5.277,-0.616c0.234,-0.292 0.353,-0.615 0.353,-0.967c-0.06,-1.349 -0.382,-6.187 -0.968,-14.514c-0.176,-1.993 -0.235,-3.519 -0.176,-4.574c-1.056,-0.058 -1.76,-0.146 -2.111,-0.264c-0.88,-0.293 -1.438,-0.85 -1.671,-1.671v-0.265c0.116,-0.058 0.204,-0.352 0.264,-0.879c0.82,-1.29 1.876,-1.788 3.167,-1.496c0.116,-0.352 0.088,-1.289 -0.089,-2.814c-0.527,-5.57 -0.851,-10.027 -0.967,-13.37c-0.235,-0.233 -0.734,-0.293 -1.496,-0.176c-1.173,0.235 -1.789,0.352 -1.847,0.352c-3.167,0 -4.692,-0.761 -4.574,-2.287c0.117,-1.407 1.319,-2.256 3.606,-2.551c2.052,-0.409 6.362,-1.055 12.931,-1.935c-0.294,0.059 1.788,0.146 6.245,0.264c5.159,0.411 8.766,1.262 10.819,2.551c2.228,1.467 3.723,3.401 4.485,5.806c0.233,0.763 0.293,1.906 0.176,3.431c-0.059,1.525 -0.294,2.609 -0.703,3.254c-1.35,2.463 -4.076,4.662 -8.181,6.598c0,0.176 0.029,0.294 0.088,0.352c1.466,1.056 2.463,1.994 2.991,2.814c1.523,2.463 2.551,6.041 3.078,10.731c0.762,6.393 1.377,10.409 1.847,12.051c0.059,0.352 0.469,0.909 1.231,1.671c0.762,0.764 1.378,1.174 1.848,1.231c1.816,0.118 2.932,-0.703 3.343,-2.463c-0.06,-0.645 0.204,-1.524 0.791,-2.639c0.821,-0.762 1.817,-1.144 2.991,-1.144c1.175,0.002 1.937,0.531 2.29,1.585zM198.91159,167.32441c0.527,-0.527 0.791,-1.348 0.791,-2.463c0,-2.99 -1.056,-5.13 -3.166,-6.421c-2.111,-1.289 -6.686,-1.876 -13.723,-1.759c-0.527,0 -1.319,0.234 -2.375,0.703c0.177,0.88 0.177,1.613 0,2.199c-0.059,0.88 -0.059,1.701 0,2.463c0.029,1.583 0.089,3.549 0.177,5.894c0.292,3.46 0.439,5.396 0.439,5.805c0.996,-0.058 2.463,-0.352 4.398,-0.879c0.292,-0.293 0.703,-0.616 1.231,-0.968c0.409,-0.117 1.465,-0.176 3.166,-0.176c3.226,0.001 6.247,-1.464 9.062,-4.398z" fill="#faa83b" stroke="none" stroke-width="1"/><g fill="#ffffff" stroke="none" stroke-width="1"><path d="M216.50358,198.19843c0.233,0.88 -0.161,2.215 -1.186,4.003c-1.023,1.789 -2.105,3.064 -3.246,3.826c-1.141,0.762 -2.911,1.261 -5.308,1.495c-1.931,0.176 -3.73,-0.675 -5.396,-2.551c-1.668,-1.876 -2.617,-3.958 -2.851,-6.245c-0.645,-6.45 -1.464,-11.083 -2.458,-13.898c-0.118,-0.703 -0.439,-1.743 -0.966,-3.122c-0.526,-1.377 -1.725,-2.507 -3.597,-3.387c-1.405,-0.527 -2.837,-1.084 -4.299,-1.671c-0.234,-0.058 -0.526,-0.058 -0.877,0c-0.819,0.234 -2.517,0.703 -5.09,1.407v1.671v6.861c0,0.118 0.044,0.675 0.132,1.671c0.088,0.998 0.132,1.702 0.132,2.111c0.117,0.998 0.265,3.637 0.44,7.916c0.409,0.177 0.849,0.177 1.319,0c1.583,-0.645 2.99,-0.791 4.222,-0.439c0.88,0.294 1.319,0.998 1.319,2.111c0,1.643 -0.865,2.625 -2.595,2.946c-1.73,0.323 -4.266,0.778 -7.608,1.364c-2.698,0.527 -4.692,0.791 -5.981,0.791c-1.994,0 -3.373,-0.469 -4.134,-1.407c-0.176,-1.936 0.82,-3.107 2.99,-3.519c1.76,-0.176 3.519,-0.381 5.277,-0.616c0.234,-0.292 0.353,-0.615 0.353,-0.967c-0.06,-1.349 -0.382,-6.187 -0.968,-14.514c-0.176,-1.993 -0.235,-3.519 -0.176,-4.574c-1.056,-0.058 -1.76,-0.146 -2.111,-0.264c-0.88,-0.293 -1.438,-0.85 -1.671,-1.671v-0.265c0.116,-0.058 0.204,-0.352 0.264,-0.879c0.82,-1.29 1.876,-1.788 3.167,-1.496c0.116,-0.352 0.088,-1.289 -0.089,-2.814c-0.527,-5.57 -0.851,-10.027 -0.967,-13.37c-0.235,-0.233 -0.734,-0.293 -1.496,-0.176c-1.173,0.235 -1.789,0.352 -1.847,0.352c-3.167,0 -4.692,-0.761 -4.574,-2.287c0.117,-1.407 1.319,-2.256 3.606,-2.551c2.052,-0.409 6.362,-1.055 12.931,-1.935c-0.294,0.059 1.788,0.146 6.245,0.264c5.159,0.411 8.766,1.262 10.819,2.551c2.228,1.467 3.723,3.401 4.485,5.806c0.233,0.763 0.293,1.906 0.176,3.431c-0.059,1.525 -0.294,2.609 -0.703,3.254c-1.35,2.463 -4.076,4.662 -8.181,6.598c0,0.176 0.029,0.294 0.088,0.352c1.466,1.056 2.463,1.994 2.991,2.814c1.523,2.463 2.551,6.041 3.078,10.731c0.762,6.393 1.377,10.409 1.847,12.051c0.059,0.352 0.469,0.909 1.231,1.671c0.762,0.764 1.378,1.174 1.848,1.231c1.816,0.118 2.932,-0.703 3.343,-2.463c-0.06,-0.645 0.204,-1.524 0.791,-2.639c0.821,-0.762 1.817,-1.144 2.991,-1.144c1.175,0.002 1.937,0.531 2.29,1.585zM198.91159,167.32441c0.527,-0.527 0.791,-1.348 0.791,-2.463c0,-2.99 -1.056,-5.13 -3.166,-6.421c-2.111,-1.289 -6.686,-1.876 -13.723,-1.759c-0.527,0 -1.319,0.234 -2.375,0.703c0.177,0.88 0.177,1.613 0,2.199c-0.059,0.88 -0.059,1.701 0,2.463c0.029,1.583 0.089,3.549 0.177,5.894c0.292,3.46 0.439,5.396 0.439,5.805c0.996,-0.058 2.463,-0.352 4.398,-0.879c0.292,-0.293 0.703,-0.616 1.231,-0.968c0.409,-0.117 1.465,-0.176 3.166,-0.176c3.226,0.001 6.247,-1.464 9.062,-4.398z"/><path d="M258.99807,191.9137c-0.412,0.47 -1.262,0.938 -2.551,1.407c-4.811,1.877 -8.943,4.193 -12.402,6.949c-0.646,0.469 -1.791,0.732 -3.432,0.791c-0.47,0 -0.954,-0.206 -1.451,-0.615c-0.499,-0.41 -0.748,-0.88 -0.748,-1.407c0,-0.704 0.792,-1.612 2.375,-2.728c1.113,-0.703 2.229,-1.437 3.344,-2.199c0.057,-0.292 -0.91,-3.752 -2.906,-10.379c-3.228,-0.058 -8.305,0.996 -15.229,3.165c-0.412,0.118 -0.647,0.352 -0.705,0.704c-0.059,0.352 -0.147,0.937 -0.264,1.758c-0.113,0.176 -0.225,0.439 -0.337,0.791c0,0.235 0.337,0.485 1.012,0.749c0.673,0.265 1.1,0.515 1.275,0.748c0.176,0.235 0.264,0.527 0.264,0.88c0,0.703 -0.308,1.364 -0.924,1.98c-0.615,0.615 -1.363,0.923 -2.242,0.923c0.058,0 -0.998,-0.146 -3.167,-0.439c-0.411,-0.058 -3.079,-0.293 -8.005,-0.703c-2.346,-0.234 -3.9,-0.586 -4.661,-1.056c-0.528,-0.352 -0.792,-0.821 -0.792,-1.407c0,-1.408 0.704,-2.229 2.111,-2.463c0.82,-0.117 1.876,-0.059 3.166,0.176c0.293,0.118 2.608,0.322 6.949,0.615c0.352,-2.463 0.938,-5.894 1.759,-10.291c1.817,-7.213 3.724,-16.361 5.718,-27.444c-0.587,-0.116 -1.202,-0.176 -1.847,-0.176c-1.115,0 -2.771,0.323 -4.971,0.968c-2.198,0.646 -3.826,0.968 -4.882,0.968c-0.41,0 -0.997,-0.321 -1.759,-0.968c-0.235,-0.704 -0.074,-1.333 0.483,-1.891c0.557,-0.557 1.173,-0.894 1.848,-1.012c0.674,-0.117 1.744,-0.322 3.211,-0.616c2.521,-0.469 5.57,-0.82 9.147,-1.056c1.7,-0.116 2.58,-0.176 2.639,-0.176c0.938,0.118 1.642,0.572 2.111,1.363c0.469,0.792 0.938,2.067 1.407,3.826c0.586,2.171 0.981,3.49 1.188,3.959c0.205,0.47 0.542,1.231 1.012,2.287c0.233,0.703 0.673,1.759 1.319,3.166c1.349,3.226 3.459,8.269 6.334,15.129c1.055,2.815 2.727,7.097 5.014,12.843c0.996,-0.117 2.287,-0.616 3.869,-1.495c1.584,-0.88 2.756,-1.319 3.52,-1.319c0.703,0 1.377,0.264 2.023,0.791c0.176,0.176 0.32,0.616 0.439,1.319c0.059,0.764 -0.029,1.292 -0.262,1.585zM239.47008,179.1627c-1.001,-1.935 -2.264,-4.869 -3.792,-8.8c-0.588,-1.349 -2.174,-4.868 -4.761,-10.56l-4.35,22.176c5.267,-0.996 9.391,-1.759 12.376,-2.288c0.351,-0.233 0.527,-0.41 0.527,-0.528z"/><path d="M130.57117,194.67501c0.293,3.637 0.233,5.981 -0.176,7.037c-1.702,4.809 -7.42,7.828 -17.152,9.06c-3.285,0.411 -6.568,-1.143 -9.853,-4.662c0,0.528 0.117,2.111 0.353,4.751c0.176,1.935 0.146,3.518 -0.088,4.749c-1.467,0.938 -2.639,1.408 -3.519,1.408c-1.35,0 -2.023,-1.319 -2.023,-3.959c0,-0.469 0.029,-1.216 0.088,-2.242c0.058,-1.025 0.088,-1.744 0.088,-2.155c0,-0.997 -0.088,-1.7 -0.264,-2.111v-4.838c0,-0.117 0.029,-0.249 0.088,-0.396c0.058,-0.146 0.117,-0.278 0.176,-0.396c-0.059,-0.82 -0.03,-2.081 0.088,-3.782c0.117,-1.056 0.117,-1.729 0,-2.023c-0.294,-0.585 -0.439,-0.937 -0.439,-1.055c0.233,-1.642 1.437,-2.463 3.606,-2.463c1.407,0 2.257,0.499 2.551,1.495c0,0.938 0.117,2.317 0.352,4.134c0.353,2.111 1.466,4.223 3.343,6.333c2.052,2.405 4.016,3.519 5.894,3.343c2.111,-0.233 4.222,-0.732 6.333,-1.495c2.932,-1.056 4.691,-2.287 5.278,-3.694c0.409,-1.056 0.615,-2.169 0.615,-3.343c0,-3.576 -1.319,-6.245 -3.958,-8.004c-1.174,-0.762 -3.343,-1.378 -6.51,-1.848c-1.818,-0.233 -2.933,-0.352 -3.342,-0.352c-2.815,0.059 -5.44,-0.85 -7.873,-2.727c-2.434,-1.876 -3.65,-4.047 -3.65,-6.51v-5.101c0,-1.113 0.645,-3.723 1.936,-7.828c0.585,-1.936 0.908,-2.961 0.968,-3.079c0.527,-1.231 1.201,-2.052 2.022,-2.463c1.993,-0.996 4.104,-1.495 6.333,-1.495c4.339,0 7.535,1.759 9.588,5.277c0.176,0.176 0.469,0.44 0.88,0.792c0.058,-0.82 0.176,-2.081 0.352,-3.782c-0.059,-0.762 -0.118,-1.495 -0.176,-2.199c0,-0.82 0.409,-1.377 1.231,-1.671c0.234,-0.117 0.557,-0.205 0.968,-0.264c0.586,-0.117 1.217,0.03 1.892,0.439c0.673,0.411 0.952,1.643 0.835,3.694c-0.059,1.29 -0.176,3.108 -0.352,5.453c-0.176,1.936 -0.439,4.897 -0.792,8.885c0.117,0.938 0.117,2.229 0,3.87c-0.294,1.114 -1.174,1.671 -2.639,1.671c-0.763,0 -1.495,-0.205 -2.199,-0.615c-0.352,-1.113 -0.527,-1.584 -0.527,-1.408c0.116,-1.583 -0.206,-3.694 -0.968,-6.333c-0.646,-1.348 -1.539,-3.268 -2.683,-5.761c-1.144,-2.492 -2.654,-3.827 -4.53,-4.003c-2.346,-0.176 -3.87,0.616 -4.574,2.375c-0.234,0.763 -0.558,1.878 -0.967,3.343c-0.704,2.17 -1.144,4.252 -1.32,6.245c-0.059,0.646 -0.118,0.91 -0.176,0.792c0.176,1.174 0.381,2.346 0.616,3.519c0.293,1.466 1.012,2.581 2.155,3.342c1.144,0.763 3.327,1.231 6.553,1.407c7.916,0.471 12.812,3.227 14.689,8.269c0.292,0.47 0.585,1.261 0.879,2.374z"/><path d="M167.37115,188.20701c0.057,2.463 -0.059,5.132 -0.352,8.004c-0.471,5.044 -1.789,8.708 -3.959,10.995c-0.998,1.056 -3.372,2.258 -7.124,3.606c-1.643,0.528 -3.461,0.792 -5.454,0.792c-3.166,0 -6.011,-0.586 -8.532,-1.76c-2.757,-1.289 -4.457,-2.96 -5.102,-5.014c-0.234,-0.293 -0.499,-0.703 -0.791,-1.231c-0.295,-1.759 -0.763,-4.397 -1.408,-7.916v-8.708c0,-0.821 0.205,-2.58 0.616,-5.278c0.409,-2.696 0.674,-4.191 0.792,-4.485c2.052,-5.454 4.31,-8.444 6.772,-8.973c1.113,-0.233 2.345,-0.352 3.694,-0.352c4.339,0 8.269,1.056 11.787,3.167c0.233,0.118 0.527,0.176 0.879,0.176c0.059,-0.176 0.117,-0.908 0.177,-2.199c0.058,0 0.058,-1.025 0,-3.078c-0.06,-1.408 0.079,-2.404 0.416,-2.991c0.335,-0.585 1.008,-0.88 2.014,-0.88c1.73,0 2.68,0.528 2.848,1.584c0,0.059 0,2.229 0,6.509c0,3.226 0,5.249 0,6.069c0,0.998 0,1.438 0,1.319c-0.236,0.88 -0.646,1.407 -1.232,1.583c-1.582,0.528 -2.668,0.559 -3.254,0.088c-0.294,0 -0.615,-0.088 -0.968,-0.264c-0.294,-0.82 -0.938,-1.904 -1.935,-3.254c-1.35,-1.113 -3.109,-2.081 -5.277,-2.903c-2.171,-0.82 -4.018,-1.231 -5.542,-1.231c-1.936,0 -3.489,1.495 -4.662,4.486c-1.643,4.105 -2.375,9.411 -2.199,15.921c0.117,2.874 0.205,4.692 0.265,5.453c0.292,2.405 0.938,4.457 1.935,6.157c0.704,1.174 1.788,2.142 3.255,2.903c1.465,0.763 2.902,1.173 4.31,1.231c6.979,0.294 11.053,-2.785 12.228,-9.236c0.645,-3.459 0.703,-6.362 0.176,-8.708c-0.119,-0.469 -0.061,-1.1 0.176,-1.892c0.232,-0.791 1.26,-1.275 3.078,-1.451c0.41,0 0.908,0.191 1.496,0.572c0.582,0.384 0.877,0.779 0.877,1.189z"/><path d="M298.48357,162.80399c-0.41,1.643 -0.762,3.87 -1.055,6.685c-0.119,1.408 -0.061,2.551 0.176,3.431c0.408,1.467 0.381,2.435 -0.088,2.903c-0.646,0.586 -1.525,0.879 -2.639,0.879c-1.291,0 -2.143,-0.383 -2.551,-1.151c-0.061,-2.362 -0.031,-4.578 0.088,-6.646c0.115,-2.54 0.176,-3.869 0.176,-3.987c-0.061,0 -0.148,-0.059 -0.264,-0.178c-5.455,0.237 -10.586,0.589 -15.394,1.059c-0.118,0.589 -0.118,1.528 0,2.82c0.233,1.822 0.352,2.88 0.352,3.172c-0.234,1.822 -0.352,4.524 -0.352,8.109c0.233,1.528 0.352,8.08 0.352,19.655v6.435c0,0.999 0.145,1.704 0.436,2.115h5.401c0.987,-0.117 1.785,0.118 2.396,0.704c0.609,0.587 0.914,1.29 0.914,2.11c0,1.289 -0.615,2.199 -1.847,2.728c-0.763,0.292 -2.111,0.352 -4.046,0.176c-0.938,-0.06 -2.317,-0.06 -4.135,0c-1.642,0.204 -4.28,0.409 -7.916,0.615c-3.167,0.117 -5.102,-0.323 -5.806,-1.319c-0.47,-0.703 -0.47,-1.437 0,-2.199c0.82,-1.289 2.961,-1.935 6.422,-1.935c1.231,0 1.992,-0.102 2.286,-0.307c0.293,-0.205 0.44,-0.601 0.44,-1.187c0,-0.526 0,-1.023 0,-1.492c0,-0.877 0,-2.165 0,-3.862c0.176,-2.983 0.176,-7.432 0,-13.343c-0.235,-8.485 -0.118,-15.945 0.352,-22.383c-0.059,-0.058 -0.147,-0.146 -0.266,-0.264c-2.123,0.118 -5.543,0.059 -10.26,-0.177c-0.531,0 -2.331,0.119 -5.396,0.353c0.762,5.337 1.231,9.354 1.407,12.051c0,0.352 -0.059,1.144 -0.176,2.375c-0.059,0.879 -0.792,1.319 -2.199,1.319c-0.763,0 -1.202,-0.262 -1.319,-0.785c-0.059,-0.115 -0.411,-1.687 -1.056,-4.711c-0.352,-1.977 -0.851,-4.769 -1.495,-8.375c0,-0.23 -0.206,-0.957 -0.615,-2.18c-0.35,-0.989 -0.525,-1.745 -0.525,-2.268c0,-0.406 0.277,-0.917 0.836,-1.526c0.557,-0.61 1.393,-1.004 2.507,-1.179c0.176,0 0.453,0 0.836,0c0.38,0 0.688,0 0.923,0c6.979,0 10.028,0 9.148,0c4.75,0.177 8.972,0.177 12.666,0c5.277,-0.233 10.495,-0.703 15.657,-1.407c0.352,-0.176 0.879,-0.352 1.582,-0.527c1.291,-0.117 2.346,0.176 3.168,0.88c0.82,0.702 1.113,1.641 0.879,2.814z"/><path d="M330.97096,188.20701c0.057,2.463 -0.059,5.132 -0.352,8.004c-0.471,5.044 -1.789,8.708 -3.959,10.995c-0.998,1.056 -3.372,2.258 -7.124,3.606c-1.643,0.528 -3.461,0.792 -5.454,0.792c-3.166,0 -6.011,-0.586 -8.532,-1.76c-2.757,-1.289 -4.457,-2.96 -5.102,-5.014c-0.234,-0.293 -0.499,-0.703 -0.791,-1.231c-0.295,-1.759 -0.763,-4.397 -1.408,-7.916v-8.708c0,-0.821 0.205,-2.58 0.616,-5.278c0.409,-2.696 0.674,-4.191 0.792,-4.485c2.052,-5.454 4.31,-8.444 6.772,-8.973c1.113,-0.233 2.345,-0.352 3.694,-0.352c4.339,0 8.269,1.056 11.787,3.167c0.233,0.118 0.527,0.176 0.879,0.176c0.059,-0.176 0.117,-0.908 0.177,-2.199c0.058,0 0.058,-1.025 0,-3.078c-0.06,-1.408 0.079,-2.404 0.416,-2.991c0.335,-0.585 1.008,-0.88 2.014,-0.88c1.73,0 2.68,0.528 2.848,1.584c0,0.059 0,2.229 0,6.509c0,3.226 0,5.249 0,6.069c0,0.998 0,1.438 0,1.319c-0.236,0.88 -0.646,1.407 -1.232,1.583c-1.582,0.528 -2.668,0.559 -3.254,0.088c-0.294,0 -0.615,-0.088 -0.968,-0.264c-0.294,-0.82 -0.938,-1.904 -1.935,-3.254c-1.35,-1.113 -3.109,-2.081 -5.277,-2.903c-2.171,-0.82 -4.018,-1.231 -5.542,-1.231c-1.936,0 -3.489,1.495 -4.662,4.486c-1.643,4.105 -2.375,9.411 -2.199,15.921c0.117,2.874 0.205,4.692 0.265,5.453c0.292,2.405 0.938,4.457 1.935,6.157c0.704,1.174 1.788,2.142 3.255,2.903c1.465,0.763 2.902,1.173 4.31,1.231c6.979,0.294 11.053,-2.785 12.228,-9.236c0.645,-3.459 0.703,-6.362 0.176,-8.708c-0.119,-0.469 -0.061,-1.1 0.176,-1.892c0.232,-0.791 1.26,-1.275 3.078,-1.451c0.41,0 0.908,0.191 1.496,0.572c0.582,0.384 0.877,0.779 0.877,1.189z"/><path d="M382.05559,215.205c0.058,0.585 -0.265,1.26 -0.968,2.022c-0.704,0.762 -1.936,1.144 -3.694,1.144c-0.411,0 -1.086,0 -2.023,0c-0.938,0.058 -1.671,0.088 -2.199,0.088c-1.114,0 -2.258,0.088 -3.43,0.265c-0.646,0.116 -2.023,0.585 -4.135,1.407c-1.877,0.761 -3.284,1.144 -4.222,1.144c-0.763,0 -1.467,-0.279 -2.111,-0.836c-0.646,-0.558 -0.967,-1.218 -0.967,-1.979c0,-1.231 1.436,-2.198 4.31,-2.902c4.163,-1.056 6.303,-1.613 6.421,-1.671c-0.118,-3.752 -0.264,-8.062 -0.439,-12.931c-0.176,-4.574 -0.265,-6.743 -0.265,-6.509v-4.926c0,-0.059 0,-0.498 0,-1.32c0.059,-0.645 0.059,-1.112 0,-1.407c-0.059,-0.527 -0.264,-0.849 -0.615,-0.967c-0.059,-0.059 -0.938,-0.089 -2.639,-0.089c-2.933,0.06 -6.333,0.471 -10.203,1.231c-1.467,0.353 -3.666,0.852 -6.598,1.496v12.578c0.058,0.235 0.088,1.379 0.088,3.431c0,1.643 0.177,2.639 0.528,2.99c0.293,0.118 1.847,0.235 4.662,0.353c1.935,0.059 3.136,0.763 3.606,2.11c0.116,0.353 -0.016,0.88 -0.396,1.584c-0.382,0.703 -0.777,1.144 -1.188,1.319c-0.938,0.352 -1.583,0.527 -1.935,0.527c-1.291,-0.059 -4.486,-0.323 -9.588,-0.791h-5.718c-0.938,-0.06 -1.847,-0.339 -2.727,-0.836c-0.88,-0.498 -1.319,-1.069 -1.319,-1.716c0,-0.937 0.557,-1.699 1.671,-2.286c0.88,-0.41 1.848,-0.616 2.903,-0.616c0.409,0 1.144,0.016 2.198,0.044c1.056,0.03 1.817,0.016 2.287,-0.044c-0.118,-2.277 -0.118,-5.753 0,-10.428c0,0.06 0,-2.365 0,-7.271c0,-0.175 0.073,-0.54 0.221,-1.096c0.146,-0.555 0.22,-0.979 0.22,-1.27c-0.235,-0.234 -0.471,-0.584 -0.704,-1.052c-0.118,-0.467 -0.118,-0.875 0,-1.228c0.41,-0.935 0.557,-2.394 0.439,-4.381c0,-0.35 0.045,-0.948 0.133,-1.795c0.088,-0.847 0.132,-1.476 0.132,-1.885c0,-0.759 -0.147,-2.774 -0.44,-6.046v-7.273c0,-0.349 -0.115,-0.904 -0.345,-1.664c-1.612,0.176 -2.793,0.264 -3.54,0.264c-3.34,0 -5.182,-1.201 -5.526,-3.606c0.879,-1.816 2.491,-2.727 4.838,-2.727c-0.06,0 1.319,0.118 4.134,0.352c2.639,0.235 4.544,0.294 5.718,0.176c3.283,-0.176 4.75,-0.264 4.397,-0.264c3.225,0 4.662,0.968 4.311,2.903c-0.294,1.407 -1.643,2.141 -4.047,2.198c-1.818,0.06 -3.605,0.118 -5.365,0.176c0.308,2.054 0.513,4.341 0.616,6.861c0,1.583 0,3.842 0,6.773c0,3.166 0,5.453 0,6.86c0.058,0.06 0.146,0.118 0.264,0.176c0.938,0.06 1.876,0.088 2.814,0.088c2.169,0 4.955,-0.176 8.356,-0.527c4.574,-0.527 7.357,-0.82 8.355,-0.88c0.293,-1.876 0.44,-4.104 0.44,-6.685c0,-4.867 -0.411,-10.32 -1.231,-16.361c0.058,0 -1.114,0 -3.519,0c-1.231,0 -2.346,-0.225 -3.343,-0.677c-0.997,-0.452 -1.495,-1.372 -1.495,-2.76c0,-0.603 0.205,-1.085 0.616,-1.446c1.172,-1.025 2.608,-1.538 4.31,-1.538c3.167,0 4.456,0.088 3.87,0.264h6.069c0.233,0 0.776,-0.044 1.627,-0.132c0.85,-0.088 1.51,-0.132 1.979,-0.132c1.876,0 3.049,0.589 3.519,1.762c0.233,0.471 0.352,0.912 0.352,1.321c0,1.292 -1.202,2.056 -3.606,2.291c-1.759,0.06 -3.519,0.118 -5.277,0.176c0.645,6.987 0.968,13.711 0.968,20.171v23.343c0,0.353 0.075,1.029 0.227,2.026c0.2,1.527 0.301,3.024 0.301,4.492c-0.059,2.643 -0.059,4.699 0,6.167c0.117,0.176 0.233,0.321 0.352,0.439c2.873,-0.411 4.28,-0.615 4.223,-0.615c2.111,0.002 3.224,0.851 3.342,2.553z"/></g></g></g></svg>